# xmcd
#
# Track frame offsets:
#	150
#	19510
#	38994
#	51713
#	66105
#	80544
#	95395
#	109688
#	123353
#	136785
#	152014
#	162554
#
# Disc length: 2357 seconds
#
# Revision: 1
# Processed by: cddbd v1.5.2PL0 Copyright (c) Steve Scherf et al.
# Submitted via: audiograbber 1.83.01
#
DISCID=9b09330c
DTITLE=Tenoriluutnantti Raimo Salo - Alla Tuikkivan Tähden
DYEAR=2005
DGENRE=Pop-Folk
TTITLE0=Alla Tuikkivan Tähden
TTITLE1=Varjot Hiekkaan Kuvastuu
TTITLE2=Katveessa Koivujen
TTITLE3=Luutnantin Sydän
TTITLE4=Hän On Niin Yksinäinen
TTITLE5=Terijoen Rannalla
TTITLE6=Äänisen Aallot
TTITLE7=Ilta Skanssissa
TTITLE8=Ilta Kannaksella
TTITLE9=Liisa Pien
TTITLE10=Takaisinpaluu
TTITLE11=Satamassa
EXTD=TR.
EXTT0=
EXTT1=
EXTT2=
EXTT3=
EXTT4=
EXTT5=
EXTT6=
EXTT7=
EXTT8=
EXTT9=
EXTT10=
EXTT11=
PLAYORDER=
